<svg xmlns="http://www.w3.org/2000/svg" viewBox="0 0 32 32"  xmlns:v="https://vecta.io/nano"><path d="M7.5 5A2.52 2.52 0 0 0 5 7.5v17A2.52 2.52 0 0 0 7.5 27h17a2.52 2.52 0 0 0 2.5-2.5v-17A2.52 2.52 0 0 0 24.5 5zm0 2h17a.49.49 0 0 1 .5.5v17a.49.49 0 0 1-.5.5h-17a.49.49 0 0 1-.5-.5v-17a.49.49 0 0 1 .5-.5zm2.938 1.72a1.72 1.72 0 0 0-1.719 1.719 1.72 1.72 0 0 0 1.719 1.719 1.72 1.72 0 0 0 1.719-1.719 1.72 1.72 0 0 0-1.719-1.719zm9.03 4.563c-1.434 0-2.387.785-2.78 1.53h-.062V13.5h-2.812V23h2.938v-4.687c0-1.238.246-2.437 1.78-2.437 1.512 0 1.53 1.398 1.53 2.5V23H23v-5.22c0-2.555-.543-4.5-3.53-4.5zM9 13.5V23h2.97v-9.5z" fill="var(--color-text-primary)"/></svg>