<svg xmlns="http://www.w3.org/2000/svg" viewBox="0 0 32 32"  xmlns:v="https://vecta.io/nano"><path d="M5 5v22h22V5H5zm2 2h18v18H7V7zm11.69 3.63a2.87 2.87 0 0 0-2.801 3.525c-2.38-.122-4.5-1.26-5.914-3a2.83 2.83 0 0 0-.389 1.447c-.001.96.478 1.857 1.277 2.39-.468-.017-.914-.147-1.295-.36v.033a2.87 2.87 0 0 0 2.297 2.818c-.455.12-.853.12-1.295.053a2.87 2.87 0 0 0 2.682 1.99 5.75 5.75 0 0 1-3.561 1.225A6.11 6.11 0 0 1 9 20.715C10.27 21.53 11.778 22 13.406 22c5.276 0 8.164-4.37 8.164-8.164 0-.123-.001-.248-.01-.37.56-.407 1.05-.915 1.438-1.488-.516.223-1.074.386-1.652.447a2.86 2.86 0 0 0 1.26-1.58 5.64 5.64 0 0 1-1.82.691 2.86 2.86 0 0 0-2.096-.906z" fill="var(--color-text-primary)"/></svg>